<svg width="25" height="26" viewBox="0 0 25 26" fill="none" xmlns="http://www.w3.org/2000/svg">
<path d="M2.49609 15.001L5.0477 10.7484C5.34136 10.2589 5.76851 9.86337 6.27904 9.6081L6.86447 9.31539C7.28121 9.10702 7.74074 8.99854 8.20667 8.99854H22.5044" stroke="white" stroke-width="1.5" stroke-linecap="round" stroke-linejoin="round"/>
<path d="M4.49658 22.004L10.2609 19.9212C11.0654 19.6304 11.7556 19.0896 12.2302 18.3778L15.2243 13.888C15.6598 13.235 15.5738 12.3654 15.0188 11.8103V11.8103C14.3759 11.1675 13.3336 11.1674 12.6906 11.8101L10.4991 14.0007H8.49825" stroke="white" stroke-width="1.5" stroke-linecap="round" stroke-linejoin="round"/>
<path d="M14.4824 15.0008H20.1876C21.4902 14.9772 22.5273 13.9024 22.5044 12.5998V8.39807C22.5273 7.09546 21.4902 6.02073 20.1876 5.99707H12.8161C11.5136 6.02073 10.4765 7.09546 10.4994 8.39807V8.39807V14.0004" stroke="white" stroke-width="1.5" stroke-linecap="round" stroke-linejoin="round"/>
</svg>
