<svg width="25" height="24" viewBox="0 0 25 24" fill="none" xmlns="http://www.w3.org/2000/svg">
<path d="M18.021 20.5H9.271C8.52507 20.5 7.8097 20.2037 7.28226 19.6762C6.75481 19.1488 6.4585 18.4334 6.4585 17.6875V8.9375C6.4585 8.19158 6.75481 7.47621 7.28226 6.94876C7.8097 6.42132 8.52507 6.125 9.271 6.125H18.021C18.7669 6.125 19.4823 6.42132 20.0097 6.94876C20.5372 7.47621 20.8335 8.19158 20.8335 8.9375V17.6875C20.8335 18.4334 20.5372 19.1488 20.0097 19.6762C19.4823 20.2037 18.7669 20.5 18.021 20.5Z" fill="black"/>
<path d="M8.3335 4.875H17.5476C17.3531 4.32705 16.9939 3.85268 16.5191 3.51699C16.0444 3.18129 15.4774 3.0007 14.896 3H6.146C5.40007 3 4.6847 3.29632 4.15726 3.82376C3.62981 4.35121 3.3335 5.06658 3.3335 5.8125V14.5625C3.3342 15.1439 3.51479 15.7109 3.85048 16.1856C4.18618 16.6604 4.66054 17.0196 5.2085 17.2141V8C5.2085 7.1712 5.53774 6.37634 6.12379 5.79029C6.70984 5.20424 7.50469 4.875 8.3335 4.875Z" fill="black"/>
</svg>
