<svg width="24" height="24" viewBox="0 0 24 24" fill="none" xmlns="http://www.w3.org/2000/svg">
<path fill-rule="evenodd" clip-rule="evenodd" d="M7.496 3H16.505C18.987 3 21 5.012 21 7.496V16.505C21 18.987 18.988 21 16.504 21H7.496C5.013 21 3 18.988 3 16.504V7.496C3 5.013 5.012 3 7.496 3V3Z" fill="black" stroke="black" stroke-width="1.5" stroke-linecap="round" stroke-linejoin="round"/>
<path fill-rule="evenodd" clip-rule="evenodd" d="M16.9477 6.71328C16.7617 6.71428 16.6107 6.86528 16.6107 7.05128C16.6107 7.23728 16.7627 7.38828 16.9487 7.38828C17.1347 7.38828 17.2857 7.23728 17.2857 7.05128C17.2867 6.86428 17.1347 6.71328 16.9477 6.71328" fill="black"/>
<path d="M16.9477 6.71328C16.7617 6.71428 16.6107 6.86528 16.6107 7.05128C16.6107 7.23728 16.7627 7.38828 16.9487 7.38828C17.1347 7.38828 17.2857 7.23728 17.2857 7.05128C17.2867 6.86428 17.1347 6.71328 16.9477 6.71328" stroke="white" stroke-width="1.5" stroke-linecap="round" stroke-linejoin="round"/>
<path fill-rule="evenodd" clip-rule="evenodd" d="M14.546 9.45432C15.9519 10.8602 15.9519 13.1396 14.546 14.5455C13.1401 15.9514 10.8607 15.9514 9.45481 14.5455C8.04892 13.1396 8.04892 10.8602 9.45481 9.45432C10.8607 8.04843 13.1401 8.04843 14.546 9.45432" fill="black"/>
<path d="M14.546 9.45432C15.9519 10.8602 15.9519 13.1396 14.546 14.5455C13.1401 15.9514 10.8607 15.9514 9.45481 14.5455C8.04892 13.1396 8.04892 10.8602 9.45481 9.45432C10.8607 8.04843 13.1401 8.04843 14.546 9.45432" stroke="white" stroke-width="1.5" stroke-linecap="round" stroke-linejoin="round"/>
</svg>
