<svg width="152" height="49" viewBox="0 0 152 49" fill="none" xmlns="http://www.w3.org/2000/svg">
<path fill-rule="evenodd" clip-rule="evenodd" d="M122.435 31.2367H116V16.2687H108.913C108.856 17.0819 108.811 17.725 108.782 18.1888C108.748 18.6527 108.696 19.2697 108.628 20.0322C108.485 21.7137 108.263 23.1226 107.972 24.2635C107.675 25.4085 107.345 26.3495 106.974 27.09C106.597 27.8353 106.197 28.4479 105.77 28.9206C105.348 29.393 104.925 29.7804 104.503 30.0783C103.955 30.4698 103.277 30.7807 102.466 31.0152C101.651 31.2494 100.789 31.3642 99.8762 31.3642C99.3169 31.3642 98.7409 31.3471 98.1473 31.3131C97.5486 31.2833 97.166 31.258 97.0005 31.2408V27.0986H97.2343C97.3312 27.1027 97.4453 27.1113 97.5765 27.1157C97.7022 27.1198 97.8506 27.1243 98.0157 27.1243C98.6432 27.1243 99.0999 27.0945 99.4023 27.0348C99.7043 26.9796 99.9672 26.873 100.201 26.7242C101.051 26.1665 101.627 25.2855 101.947 24.0763C102.261 22.8631 102.5 21.1686 102.654 18.9934C102.723 18.1251 102.774 17.184 102.814 16.1666C102.854 15.1491 102.888 13.9829 102.923 12.6675H122.435V31.2371V31.2367Z" fill="#FFD966"/>
<path fill-rule="evenodd" clip-rule="evenodd" d="M94.4955 31.2368H76.4893V12.6672H94.4955V16.2689H82.9248V19.4618H93.6741V23.0631H82.9248V27.6352H94.4955V31.2368Z" fill="#FFD966"/>
<path fill-rule="evenodd" clip-rule="evenodd" d="M60.9478 17.7841L65.6556 12.6672H72.7697L64.4476 21.3171L60.9478 17.7841Z" fill="#FFD966"/>
<path fill-rule="evenodd" clip-rule="evenodd" d="M54.6665 31.2368H47.5747L56.395 21.8842L47.7458 12.6672H55.1459L63.3734 21.6329L54.6665 31.2368Z" fill="#0275ED"/>
<path fill-rule="evenodd" clip-rule="evenodd" d="M72.9074 31.2367H65.4905L60.7383 25.8354L64.4514 22.0869L72.9074 31.2367Z" fill="#FFD966"/>
<path fill-rule="evenodd" clip-rule="evenodd" d="M151.094 31.2368H144.659V16.2689H135.245V31.2368H128.809V12.6672H151.094V31.2368Z" fill="#FFD966"/>
<path d="M16.1704 8.13236L12.3454 19.2847H18.1147L20.2123 25.0227H10.4111L8.22517 31.3647H0.0424805L11.612 0H20.9162L32.4858 31.3647H24.1159C21.6269 24.0869 18.9543 16.2714 16.1704 8.13236Z" fill="#0275ED"/>
<path fill-rule="evenodd" clip-rule="evenodd" d="M32.0604 35.8541C31.7789 37.5196 31.2368 39.0874 30.4773 40.5172C29.7 41.9806 28.6858 43.3146 27.4827 44.4745C26.0085 45.8954 24.2502 47.0415 22.2987 47.8237C20.4084 48.5817 18.3504 49 16.2084 49C14.0661 49 12.008 48.5817 10.1177 47.8237C8.16629 47.0415 6.40798 45.8958 4.93377 44.4745C3.73062 43.3146 2.7165 41.9806 1.93913 40.5172C1.17929 39.0877 0.637554 37.5196 0.356061 35.8541L0 33.7465H7.2547H8.14951C8.18754 33.9899 8.23862 34.2293 8.30088 34.4645C8.61929 38.3301 12.039 41.3729 16.2107 41.3729C20.5926 41.3729 24.1447 38.0158 24.1447 33.8747L24.1443 33.8482C24.1503 33.8143 24.1562 33.7804 24.1618 33.7465H25.1625H32.4172L32.0608 35.8541H32.0604Z" fill="#0275ED"/>
<path d="M44.5424 23.5641H35.7979V18.7369H44.5424V23.5641Z" fill="#0275ED"/>
<path fill-rule="evenodd" clip-rule="evenodd" d="M49.1455 41.1703H53.8194V41.9227H50.0221V43.6933H51.9519C52.6893 43.6933 53.2501 43.8465 53.6337 44.1537C54.0174 44.4606 54.209 44.9035 54.209 45.4818C54.209 46.0895 54.001 46.5556 53.5849 46.8803C53.1688 47.2047 52.5745 47.3672 51.8012 47.3672H49.1455V41.1706V41.1703ZM51.7658 46.6674C52.2736 46.6674 52.6599 46.5701 52.9253 46.3751C53.1912 46.1805 53.3239 45.8941 53.3239 45.5165C53.3239 44.767 52.8045 44.3923 51.7658 44.3923H50.0221V46.667H51.7658V46.6674ZM60.5208 41.1703V47.3668H59.6536V41.9406H56.9091L56.8472 43.7552C56.8178 44.6108 56.7484 45.3043 56.6392 45.8356C56.53 46.3665 56.3573 46.7662 56.1213 47.035C55.8853 47.3035 55.5665 47.4377 55.1654 47.4377C54.9823 47.4377 54.7966 47.4142 54.6076 47.3668L54.6699 46.579C54.7642 46.6025 54.8589 46.6145 54.9528 46.6145C55.2067 46.6145 55.4103 46.5127 55.5636 46.3091C55.7172 46.1055 55.832 45.8002 55.9088 45.393C55.9856 44.9859 56.0356 44.4486 56.0594 43.782L56.1567 41.1706H60.5208V41.1703ZM66.4784 45.8177H63.1855L62.5036 47.3668H61.592L64.3983 41.1703H65.2745L68.0894 47.3668H67.16L66.478 45.8177H66.4784ZM66.1686 45.1097L64.832 42.0733L63.495 45.1097H66.1682H66.1686ZM73.2149 41.9406H70.0278L70.0368 47.3668H69.1602V41.1703H73.2234L73.2145 41.9402L73.2149 41.9406ZM76.2867 47.4377C75.6611 47.4377 75.0973 47.3005 74.5958 47.0264C74.094 46.752 73.7003 46.3729 73.4143 45.8889C73.128 45.405 72.9848 44.8651 72.9848 44.2689C72.9848 43.6728 73.128 43.1329 73.4143 42.6489C73.7003 42.165 74.0944 41.7862 74.5958 41.5114C75.0977 41.237 75.6611 41.0998 76.2867 41.0998C76.9063 41.0998 77.4667 41.2374 77.9685 41.5114C78.4704 41.7858 78.8626 42.1635 79.146 42.6445C79.4293 43.1251 79.571 43.6668 79.571 44.2686C79.571 44.8707 79.4293 45.4121 79.146 45.893C78.863 46.374 78.4704 46.7517 77.9685 47.0264C77.4667 47.3005 76.9063 47.4377 76.2867 47.4377ZM76.2867 46.6499C76.7412 46.6499 77.1498 46.5466 77.5126 46.3401C77.8757 46.1335 78.1617 45.8486 78.3712 45.4859C78.5804 45.1227 78.6851 44.7171 78.6851 44.2686C78.6851 43.82 78.5804 43.4144 78.3712 43.0516C78.1617 42.6885 77.8753 42.404 77.5126 42.1971C77.1494 41.9905 76.7408 41.8872 76.2867 41.8872C75.8322 41.8872 75.4206 41.9905 75.0518 42.1971C74.6831 42.404 74.3938 42.6881 74.1842 43.0516C73.9747 43.4144 73.8699 43.8204 73.8699 44.2686C73.8699 44.7171 73.9743 45.1227 74.1842 45.4859C74.3938 45.8486 74.6831 46.1335 75.0518 46.3401C75.4206 46.5466 75.8322 46.6499 76.2867 46.6499ZM86.7325 46.5969V48.7214H85.9093V47.3668H80.8103L80.8014 48.7214H79.9778L79.9867 46.5969H80.2876C80.6772 46.5734 80.9516 46.2651 81.1112 45.6719C81.2704 45.0787 81.3677 44.2425 81.4035 43.162L81.4654 41.1706H85.8205V46.5969H86.7325ZM82.1824 43.2418C82.1529 44.1153 82.0836 44.8379 81.9743 45.4106C81.8655 45.9829 81.6899 46.3785 81.4479 46.5969H84.9444V41.9406H82.2267L82.1824 43.2418ZM87.9453 41.1703H88.8219V47.3668H87.9453V41.1703ZM90.7517 41.1703H91.6282V45.9504L95.2929 41.1703H96.1075V47.3668H95.2399V42.5956L91.5663 47.3668H90.7521V41.1703H90.7517ZM93.416 40.7363C92.9321 40.7363 92.5588 40.6315 92.296 40.422C92.0335 40.2124 91.8993 39.9131 91.8933 39.5234H92.5216C92.5275 39.7535 92.6088 39.9321 92.765 40.0588C92.9216 40.1856 93.1382 40.249 93.4156 40.249C93.6811 40.249 93.8951 40.1856 94.0573 40.0588C94.2198 39.9321 94.3037 39.7535 94.3097 39.5234H94.9294C94.9234 39.9071 94.7892 40.205 94.5267 40.4175C94.2638 40.63 93.8936 40.7363 93.4156 40.7363H93.416ZM103.366 41.1703V47.3668H102.481V44.6049H98.9221V47.3668H98.0366V41.1703H98.9221V43.8346H102.481V41.1703H103.366ZM105.296 41.1703H106.172V45.9504L109.837 41.1703H110.652V47.3668H109.784V42.5956L106.11 47.3668H105.296V41.1703H105.296ZM112.581 41.1703H113.458V45.9504L117.123 41.1703H117.937V47.3668H117.07V42.5956L113.396 47.3668H112.582V41.1703H112.581ZM115.246 40.7363C114.762 40.7363 114.389 40.6315 114.126 40.422C113.863 40.2124 113.729 39.9131 113.723 39.5234H114.351C114.357 39.7535 114.439 39.9321 114.595 40.0588C114.751 40.1856 114.968 40.249 115.245 40.249C115.511 40.249 115.725 40.1856 115.887 40.0588C116.05 39.9321 116.133 39.7535 116.139 39.5234H116.759C116.753 39.9071 116.619 40.205 116.356 40.4175C116.094 40.63 115.723 40.7363 115.245 40.7363H115.246ZM129.082 44.2596C129.082 45.0799 128.796 45.7234 128.223 46.1894C127.651 46.6555 126.842 46.9064 125.798 46.9418V47.5969H124.975V46.9418C123.93 46.9004 123.12 46.6465 122.545 46.1805C121.969 45.7144 121.682 45.0739 121.682 44.2596C121.682 43.4394 121.969 42.7962 122.545 42.3298C123.12 41.8637 123.93 41.6098 124.975 41.5685V40.9399H125.798V41.5685C126.837 41.6095 127.643 41.8649 128.219 42.3339C128.794 42.8033 129.082 43.445 129.082 44.2592V44.2596ZM125.798 46.2513C126.589 46.204 127.192 46.0108 127.608 45.6715C128.024 45.3323 128.232 44.8588 128.232 44.2507C128.232 43.6545 128.021 43.187 127.599 42.8477C127.177 42.5084 126.576 42.3149 125.797 42.2679V46.2513H125.798ZM122.54 44.2596C122.54 44.8617 122.751 45.3323 123.173 45.6715C123.595 46.0108 124.196 46.2043 124.975 46.2513V42.2679C124.184 42.3149 123.581 42.5065 123.165 42.8432C122.749 43.1799 122.541 43.6515 122.541 44.2596H122.54ZM133.234 47.4373C132.608 47.4373 132.045 47.3001 131.543 47.0261C131.041 46.7517 130.648 46.3725 130.361 45.8885C130.075 45.4046 129.932 44.8647 129.932 44.2686C129.932 43.6724 130.075 43.1325 130.361 42.6486C130.648 42.1646 131.041 41.7858 131.543 41.511C132.045 41.2366 132.608 41.0994 133.234 41.0994C133.854 41.0994 134.414 41.237 134.916 41.511C135.418 41.7855 135.81 42.1631 136.093 42.6441C136.376 43.1247 136.518 43.6664 136.518 44.2682C136.518 44.8703 136.376 45.4117 136.093 45.8926C135.81 46.3736 135.417 46.7513 134.916 47.0261C134.414 47.3001 133.854 47.4373 133.234 47.4373ZM133.234 46.6495C133.689 46.6495 134.097 46.5462 134.46 46.3397C134.823 46.1331 135.109 45.8483 135.319 45.4855C135.528 45.1224 135.633 44.7167 135.633 44.2682C135.633 43.8197 135.528 43.414 135.319 43.0512C135.109 42.6881 134.823 42.4036 134.46 42.1967C134.097 41.9901 133.688 41.8869 133.234 41.8869C132.78 41.8869 132.368 41.9901 131.999 42.1967C131.63 42.4036 131.341 42.6877 131.132 43.0512C130.922 43.414 130.818 43.82 130.818 44.2682C130.818 44.7167 130.922 45.1224 131.132 45.4855C131.341 45.8483 131.63 46.1331 131.999 46.3397C132.368 46.5462 132.78 46.6495 133.234 46.6495ZM143.281 41.1699V47.3665H142.396V44.6045H138.837V47.3665H137.952V41.1699H138.837V43.8342H142.396V41.1699H143.281ZM151.036 46.5962V48.7206H150.212V47.3661H145.113L145.104 48.7206H144.281L144.29 46.5962H144.591C144.98 46.5727 145.255 46.2644 145.414 45.6712C145.573 45.078 145.671 44.2417 145.706 43.1612L145.768 41.1699H150.123V46.5962H151.035H151.036ZM146.485 43.241C146.456 44.1146 146.387 44.8371 146.277 45.4098C146.168 45.9821 145.993 46.3777 145.751 46.5962H149.247V41.9398H146.53L146.485 43.241Z" fill="white"/>
</svg>
