<svg width="24" height="24" viewBox="0 0 24 24" fill="none" xmlns="http://www.w3.org/2000/svg">
<path d="M19.4869 5C19.4266 5 19.3643 5.01086 19.3024 5.03443L3.33172 11.0989C2.8806 11.2702 2.89249 11.9122 3.34976 12.0665L7.05261 13.317L9.28547 17.7827C9.28588 17.7839 9.2867 17.7852 9.28711 17.7864L9.29326 17.7983L9.2947 17.7974C9.33528 17.8798 9.41952 17.9333 9.50929 17.9333C9.56217 17.9333 9.61628 17.9155 9.66301 17.8759L11.7549 16.1034L9.41911 14.3319L9.60193 16.6585L7.92288 13.1846L16.8469 7.82766L9.41911 14.3319L15.2015 18.7171C15.3952 18.8639 15.6168 18.9317 15.8344 18.9317C16.2931 18.9317 16.7342 18.631 16.8584 18.1346L19.9843 5.63989C20.0688 5.30129 19.8041 5 19.4869 5Z" fill="black"/>
</svg>
