<svg width="18" height="14" viewBox="0 0 18 14" fill="none" xmlns="http://www.w3.org/2000/svg">
<path d="M16.9869 0C16.9266 0 16.8643 0.010863 16.8024 0.0344337L0.831722 6.09886C0.380599 6.27021 0.392487 6.91216 0.849758 7.06649L4.55261 8.31697L6.78547 12.7827C6.78588 12.7839 6.7867 12.7852 6.78711 12.7864L6.79326 12.7983L6.7947 12.7974C6.83528 12.8798 6.91952 12.9333 7.00929 12.9333C7.06217 12.9333 7.11628 12.9155 7.16301 12.8759L9.25486 11.1034L6.91911 9.33194L7.10193 11.6585L5.42288 8.18456L14.3469 2.82766L6.91911 9.33194L12.7015 13.7171C12.8952 13.8639 13.1168 13.9317 13.3344 13.9317C13.7931 13.9317 14.2342 13.631 14.3584 13.1346L17.4843 0.639893C17.5688 0.301295 17.3041 0 16.9869 0Z" fill="white"/>
</svg>
