<svg width="18" height="18" viewBox="0 0 18 18" fill="none" xmlns="http://www.w3.org/2000/svg">
<path fill-rule="evenodd" clip-rule="evenodd" d="M12.9649 0.463644C10.1987 -0.154548 7.32992 -0.154548 4.56345 0.463644L4.26526 0.530434C2.67852 0.885068 1.42594 2.10211 1.02588 3.67807C0.324707 6.44071 0.324707 9.3349 1.02588 12.0978C1.40795 13.6031 2.5681 14.7808 4.05433 15.1926L4.46293 17.6329C4.48924 17.791 4.59966 17.9221 4.75078 17.9752C4.90212 18.0283 5.07011 17.9948 5.18952 17.888L7.59055 15.7399C9.38824 15.8496 11.1976 15.7068 12.9649 15.312L13.2631 15.2452C14.8499 14.8905 16.1025 13.6735 16.5025 12.0978C17.2037 9.3349 17.2037 6.44071 16.5025 3.67807C16.1025 2.10211 14.8499 0.885068 13.2631 0.530434L12.9649 0.463644ZM5.3051 3.6061C5.14184 3.58227 4.97521 3.6151 4.83308 3.6992H4.82094C4.49104 3.89238 4.19375 4.13682 3.94031 4.42309C3.72983 4.66663 3.61559 4.9131 3.58545 5.15013C3.56769 5.29157 3.57983 5.4328 3.62188 5.56795L3.63695 5.57717C3.87397 6.27407 4.18386 6.94444 4.56255 7.57567C5.05009 8.46237 5.65007 9.2825 6.34787 10.0156L6.36856 10.0455L6.40139 10.0698L6.4223 10.0941L6.44637 10.1148C7.1824 10.8144 8.00455 11.4173 8.89305 11.9086C9.90861 12.4614 10.525 12.7227 10.8947 12.8311V12.8369C11.0033 12.8698 11.1018 12.8848 11.2012 12.8848C11.5163 12.8617 11.8149 12.7337 12.0488 12.5214C12.3339 12.2678 12.5754 11.9696 12.7643 11.6381V11.6323C12.9413 11.2988 12.8815 10.983 12.6258 10.7696C12.1138 10.3223 11.5603 9.92498 10.9727 9.58294C10.579 9.36953 10.1794 9.49861 10.0172 9.71495L9.67136 10.1508C9.49438 10.3669 9.17235 10.337 9.17235 10.337L9.16313 10.3428C6.7621 9.72934 6.12164 7.29862 6.12164 7.29862C6.12164 7.29862 6.09151 6.96805 6.31369 6.79961L6.74658 6.45128C6.95369 6.28262 7.09784 5.88346 6.87566 5.48947C6.53609 4.90096 6.13963 4.34731 5.69167 3.83638C5.59385 3.71585 5.45645 3.63399 5.30398 3.60498L5.3051 3.6061ZM9.3626 2.54962C9.11973 2.54962 8.92296 2.74639 8.92296 2.98926C8.92296 3.23191 9.11973 3.42868 9.3626 3.42868C10.4744 3.42868 11.3982 3.79208 12.1282 4.48786C12.5037 4.86903 12.7963 5.31991 12.9883 5.81352C13.181 6.30893 13.2687 6.83717 13.2463 7.36631C13.2359 7.60895 13.4241 7.81382 13.6668 7.82416C13.9094 7.83451 14.1143 7.64628 14.1246 7.40364C14.1523 6.75284 14.0444 6.10316 13.8078 5.49486C13.571 4.88634 13.2107 4.33202 12.7491 3.86517L12.7403 3.85685C11.8345 2.99084 10.6867 2.54962 9.3626 2.54962ZM9.33269 3.99515C9.08982 3.99515 8.89305 4.19214 8.89305 4.43478C8.89305 4.67765 9.08982 4.87442 9.33269 4.87442H9.34686C10.1492 4.93087 10.733 5.19825 11.1423 5.63721C11.5612 6.08922 11.7783 6.65074 11.7623 7.34539C11.7567 7.58804 11.9489 7.78953 12.1916 7.79515C12.4342 7.80077 12.6357 7.6085 12.6413 7.36586C12.6625 6.45375 12.369 5.66712 11.7868 5.03903L11.7859 5.03836C11.1911 4.39993 10.3748 4.06216 9.39161 3.99627L9.37677 3.99515H9.33269ZM9.31605 5.4672C9.0734 5.45461 8.86652 5.64081 8.85392 5.88323C8.8411 6.12565 9.0273 6.33254 9.26972 6.34536C9.63785 6.3647 9.8724 6.47511 10.0199 6.62398C10.1683 6.77353 10.279 7.01325 10.2992 7.3888C10.3123 7.63122 10.5194 7.81719 10.762 7.80415C11.0044 7.7911 11.1904 7.58399 11.1774 7.34157C11.1488 6.81401 10.9838 6.34761 10.6449 6.00534C10.3051 5.6624 9.84137 5.49486 9.31605 5.4672Z" fill="white"/>
</svg>
