<svg width="24" height="24" viewBox="0 0 24 24" fill="none" xmlns="http://www.w3.org/2000/svg">
<path fill-rule="evenodd" clip-rule="evenodd" d="M16.4649 3.46364C13.6987 2.84545 10.8299 2.84545 8.06345 3.46364L7.76526 3.53043C6.17852 3.88507 4.92594 5.10211 4.52588 6.67807C3.82471 9.44071 3.82471 12.3349 4.52588 15.0978C4.90795 16.6031 6.0681 17.7808 7.55433 18.1926L7.96293 20.6329C7.98924 20.791 8.09966 20.9221 8.25078 20.9752C8.40212 21.0283 8.57011 20.9948 8.68952 20.888L11.0906 18.7399C12.8882 18.8496 14.6976 18.7068 16.4649 18.312L16.7631 18.2452C18.3499 17.8905 19.6025 16.6735 20.0025 15.0978C20.7037 12.3349 20.7037 9.44071 20.0025 6.67807C19.6025 5.10211 18.3499 3.88507 16.7631 3.53043L16.4649 3.46364ZM8.8051 6.6061C8.64184 6.58227 8.47521 6.6151 8.33308 6.6992H8.32094C7.99104 6.89238 7.69375 7.13682 7.44031 7.42309C7.22983 7.66663 7.11559 7.9131 7.08545 8.15012C7.06769 8.29157 7.07983 8.4328 7.12188 8.56795L7.13695 8.57717C7.37397 9.27407 7.68386 9.94444 8.06255 10.5757C8.55009 11.4624 9.15007 12.2825 9.84787 13.0156L9.86856 13.0455L9.90139 13.0698L9.9223 13.0941L9.94637 13.1148C10.6824 13.8144 11.5046 14.4173 12.3931 14.9086C13.4086 15.4614 14.025 15.7227 14.3947 15.8311V15.8369C14.5033 15.8698 14.6018 15.8848 14.7012 15.8848C15.0163 15.8617 15.3149 15.7337 15.5488 15.5214C15.8339 15.2678 16.0754 14.9696 16.2643 14.6381V14.6323C16.4413 14.2988 16.3815 13.983 16.1258 13.7696C15.6138 13.3223 15.0603 12.925 14.4727 12.5829C14.079 12.3695 13.6794 12.4986 13.5172 12.7149L13.1714 13.1508C12.9944 13.3669 12.6724 13.337 12.6724 13.337L12.6631 13.3428C10.2621 12.7293 9.62164 10.2986 9.62164 10.2986C9.62164 10.2986 9.59151 9.96805 9.81369 9.79961L10.2466 9.45128C10.4537 9.28262 10.5978 8.88346 10.3757 8.48947C10.0361 7.90096 9.63963 7.34731 9.19167 6.83638C9.09385 6.71585 8.95645 6.63399 8.80398 6.60498L8.8051 6.6061ZM12.8626 5.54962C12.6197 5.54962 12.423 5.74639 12.423 5.98926C12.423 6.23191 12.6197 6.42868 12.8626 6.42868C13.9744 6.42868 14.8982 6.79208 15.6282 7.48786C16.0037 7.86903 16.2963 8.31991 16.4883 8.81352C16.681 9.30893 16.7687 9.83717 16.7463 10.3663C16.7359 10.609 16.9241 10.8138 17.1668 10.8242C17.4094 10.8345 17.6143 10.6463 17.6246 10.4036C17.6523 9.75284 17.5444 9.10316 17.3078 8.49486C17.071 7.88634 16.7107 7.33201 16.2491 6.86517L16.2403 6.85685C15.3345 5.99084 14.1867 5.54962 12.8626 5.54962ZM12.8327 6.99515C12.5898 6.99515 12.3931 7.19214 12.3931 7.43478C12.3931 7.67765 12.5898 7.87442 12.8327 7.87442H12.8469C13.6492 7.93087 14.233 8.19825 14.6423 8.63721C15.0612 9.08922 15.2783 9.65074 15.2623 10.3454C15.2567 10.588 15.4489 10.7895 15.6916 10.7952C15.9342 10.8008 16.1357 10.6085 16.1413 10.3659C16.1625 9.45375 15.869 8.66712 15.2868 8.03903L15.2859 8.03836C14.6911 7.39993 13.8748 7.06216 12.8916 6.99627L12.8768 6.99515H12.8327ZM12.816 8.4672C12.5734 8.45461 12.3665 8.64081 12.3539 8.88323C12.3411 9.12565 12.5273 9.33254 12.7697 9.34536C13.1379 9.3647 13.3724 9.47511 13.5199 9.62398C13.6683 9.77353 13.779 10.0132 13.7992 10.3888C13.8123 10.6312 14.0194 10.8172 14.262 10.8041C14.5044 10.7911 14.6904 10.584 14.6774 10.3416C14.6488 9.81401 14.4838 9.34761 14.1449 9.00534C13.8051 8.6624 13.3414 8.49486 12.816 8.4672Z" fill="black"/>
</svg>
